<svg xmlns="http://www.w3.org/2000/svg" width="720" height="140" version="1.1"><defs id="edraw-defs"><marker id="edraw-def-0-arrow" markerWidth="6" markerHeight="6" viewBox="0 0 10 10" refX="5" refY="5" orient="auto" stroke="none" fill="#000"><path d="M0,1.5 0,8.5 7.0,5Z" /></marker><marker id="edraw-def-1-arrow" markerWidth="6" markerHeight="6" viewBox="0 0 10 10" refX="5" refY="5" orient="auto" stroke="none" fill="#000"><path d="M10,1.5 10,8.5 2.5,5Z" /></marker></defs><rect width="720" height="140" x="0" y="0" fill="#fff" stroke="none" id="edraw-background" /><g id="edraw-body"><rect stroke-width="2" stroke="black" height="40" width="260" y="69" x="20" ry="0" rx="0" fill="#ddd" /><rect stroke-width="2" stroke="black" fill="#ddd" ry="0" rx="0" height="40" width="260" y="69" x="440" /><rect stroke-width="2" fill="#fff" stroke="black" height="20" width="80" y="79" x="320" ry="0" rx="0" /><path d="" fill="none" stroke-width="4" stroke="#999" /><path d="M280,200" fill="none" stroke-width="4" stroke="#999" /><path d="M279,89L319,89" fill="none" stroke-width="4" stroke="#000" /><path stroke-width="4" stroke="#000" fill="none" d="M400,89L440,89" /><path marker-end="url(#edraw-def-0-arrow)" d="M320,119L400,59" fill="none" stroke-width="4" stroke="#000" /><text font-weight="bold" y="94" x="358" fill="#f00" text-anchor="middle" font-size="18" font-family="sans-serif">joint</text><path marker-end="url(#edraw-def-0-arrow)" stroke-width="2" d="M160,29L280,29" fill="none" stroke="#000" /><path marker-start="url(#edraw-def-1-arrow)" stroke-width="2" stroke="#000" fill="none" d="M160,57L280,57" /><path marker-end="url(#edraw-def-0-arrow)" stroke-width="2" stroke="#000" fill="none" d="M440,29L560,29" /><path marker-start="url(#edraw-def-1-arrow)" stroke-width="2" stroke="#000" fill="none" d="M440,57L560,57" /><text y="21" x="178" fill="#222" text-anchor="middle" font-size="18" font-family="sans-serif">a+</text><text y="51" x="263" fill="#222" text-anchor="middle" font-size="18" font-family="sans-serif">a-</text><text y="22" x="457" fill="#222" text-anchor="middle" font-size="18" font-family="sans-serif">b+</text><text y="50" x="540" fill="#222" text-anchor="middle" font-size="18" font-family="sans-serif">b-</text></g></svg>